<svg id="Component_274_18" data-name="Component 274 – 18" xmlns="http://www.w3.org/2000/svg" width="179.434" height="40" viewBox="0 0 179.434 40">
  <g id="Group_4889" data-name="Group 4889" transform="translate(0)">
    <path id="Union_3" data-name="Union 3" d="M.585,29.694C.2,29.02,0,24.426,0,19.824,0,15.2.194,10.576.585,9.9,1.366,8.547,16.169,0,17.729,0S34.091,8.547,34.872,9.9c.39.676.585,5.287.585,9.9s-.195,9.221-.585,9.9c-.78,1.351-15.582,9.9-17.142,9.9S1.366,31.046.585,29.694Z" fill="#57144c"/>
  </g>
  <g id="Group_4839" data-name="Group 4839" transform="translate(8.603 7.42)">
    <path id="Subtraction_2" data-name="Subtraction 2" d="M9.542,21.309h0a26.156,26.156,0,0,1-4.771-2.391A26.16,26.16,0,0,1,.315,15.981,26.167,26.167,0,0,1,0,10.654,26.165,26.165,0,0,1,.315,5.326,26.171,26.171,0,0,1,4.771,2.39,26.168,26.168,0,0,1,9.542,0a26.161,26.161,0,0,1,4.771,2.391,26.147,26.147,0,0,1,4.456,2.936,26.157,26.157,0,0,1,.315,5.327,26.161,26.161,0,0,1-.315,5.327,26.164,26.164,0,0,1-4.456,2.937A26.16,26.16,0,0,1,9.542,21.309ZM9.529,3.972A16.357,16.357,0,0,0,6.547,5.466,16.36,16.36,0,0,0,3.762,7.3a16.356,16.356,0,0,0-.2,3.33,16.356,16.356,0,0,0,.2,3.33A16.358,16.358,0,0,0,6.547,15.8,16.344,16.344,0,0,0,9.529,17.29,16.349,16.349,0,0,0,12.511,15.8,16.35,16.35,0,0,0,15.3,13.96a16.353,16.353,0,0,0,.2-3.329A16.353,16.353,0,0,0,15.3,7.3a16.361,16.361,0,0,0-2.785-1.835A16.354,16.354,0,0,0,9.529,3.972Z" transform="translate(0.073 5.734)" fill="#fff"/>
    <path id="Path_8443" data-name="Path 8443" d="M3.546,18.441C3.305,8.931,3.884.533,3.884.533,3.9-.027,3.529-.091,3.226.09c0,0-2.27,1.464-2.635,1.683S.159,2.064.1,2.467C.046,4.509-.1,11.958.1,18.814.141,20.074,3.575,19.587,3.546,18.441Z" transform="matrix(1, 0.017, -0.017, 1, 0.341, 0)" fill="#fff"/>
  </g>
  <path id="Union_8" data-name="Union 8" d="M125.5,18.305a6.144,6.144,0,0,1-2.12-1.483,6.95,6.95,0,0,1-1.779-4.77,6.9,6.9,0,0,1,1.78-4.759,6,6,0,0,1,2.034-1.423,6.582,6.582,0,0,1,2.6-.516,6.225,6.225,0,0,1,2.54.515,5.545,5.545,0,0,1,1.887,1.372,5.979,5.979,0,0,1,1.164,1.95,6.539,6.539,0,0,1,.4,2.257,1.6,1.6,0,0,1-.17.909.86.86,0,0,1-.773.307H123.026a5.427,5.427,0,0,0,1.453,3.305,4.675,4.675,0,0,0,1.635,1.079,6.1,6.1,0,0,0,2.253.4,5.589,5.589,0,0,0,3.769-1.335.6.6,0,0,1,.4-.162.462.462,0,0,1,.356.158l.152.151.01.012a.567.567,0,0,1,.141.527.729.729,0,0,1-.224.319l-.038.038-.007.007a6.706,6.706,0,0,1-4.61,1.686A7.194,7.194,0,0,1,125.5,18.305Zm-2.417-7.041h9.558a5.447,5.447,0,0,0-.327-1.61,4.4,4.4,0,0,0-.923-1.5,4.54,4.54,0,0,0-3.4-1.35A4.723,4.723,0,0,0,123.079,11.264ZM83.285,18.342a6.022,6.022,0,0,1-2.066-1.416,6.318,6.318,0,0,1-1.333-2.143,7.557,7.557,0,0,1-.471-2.68,6.925,6.925,0,0,1,1.8-4.813,6.037,6.037,0,0,1,2.065-1.422,6.829,6.829,0,0,1,2.649-.512,6.045,6.045,0,0,1,3.265.9A5.745,5.745,0,0,1,90.813,7.77l.031-1.5a.543.543,0,0,1,.589-.609h.253a.543.543,0,0,1,.589.613V17.936a.669.669,0,0,1-.113.422.536.536,0,0,1-.452.191h-.278a.542.542,0,0,1-.589-.61l-.03-1.422A5.467,5.467,0,0,1,89.2,18a6.237,6.237,0,0,1-3.27.855A6.868,6.868,0,0,1,83.285,18.342ZM80.822,12.1a6.132,6.132,0,0,0,.381,2.186,4.883,4.883,0,0,0,1.052,1.673,4.653,4.653,0,0,0,1.6,1.077,5.416,5.416,0,0,0,2.051.385,5.271,5.271,0,0,0,2.006-.376,4.448,4.448,0,0,0,1.552-1.056,5.4,5.4,0,0,0,1.378-3.814,6.458,6.458,0,0,0-.366-2.2,5.009,5.009,0,0,0-1.015-1.7,4.5,4.5,0,0,0-1.553-1.1,5.047,5.047,0,0,0-2-.395A4.982,4.982,0,0,0,80.822,12.1ZM27.331,18.342a6.026,6.026,0,0,1-2.066-1.416,6.329,6.329,0,0,1-1.333-2.143,7.564,7.564,0,0,1-.47-2.68,6.923,6.923,0,0,1,1.8-4.813A6.037,6.037,0,0,1,27.33,5.868a6.828,6.828,0,0,1,2.649-.512,6.046,6.046,0,0,1,3.265.9A5.745,5.745,0,0,1,34.859,7.77l.031-1.5a.543.543,0,0,1,.589-.609h.252a.543.543,0,0,1,.59.613V17.936a.667.667,0,0,1-.113.422.535.535,0,0,1-.451.191h-.278a.542.542,0,0,1-.589-.61l-.03-1.422A5.466,5.466,0,0,1,33.25,18a6.237,6.237,0,0,1-3.271.855A6.87,6.87,0,0,1,27.331,18.342ZM24.867,12.1a6.133,6.133,0,0,0,.381,2.186A4.877,4.877,0,0,0,26.3,15.962a4.649,4.649,0,0,0,1.6,1.077,5.416,5.416,0,0,0,2.051.385,5.271,5.271,0,0,0,2.006-.376,4.451,4.451,0,0,0,1.552-1.056,5.4,5.4,0,0,0,1.378-3.814,6.466,6.466,0,0,0-.366-2.2,5,5,0,0,0-1.015-1.7,4.5,4.5,0,0,0-1.553-1.1,5.047,5.047,0,0,0-2-.395A4.983,4.983,0,0,0,24.867,12.1ZM3.074,18a5.445,5.445,0,0,1-1.614-1.479l-.03,1.423a.543.543,0,0,1-.59.61H.564a.535.535,0,0,1-.452-.191A.67.67,0,0,1,0,17.936V.613A.543.543,0,0,1,.589,0H.841a.543.543,0,0,1,.59.613V7.764A5.93,5.93,0,0,1,6.366,5.355,6.762,6.762,0,0,1,9,5.868,6.027,6.027,0,0,1,11.059,7.29a6.935,6.935,0,0,1,1.8,4.813,7.57,7.57,0,0,1-.47,2.68,6.34,6.34,0,0,1-1.33,2.143A6.009,6.009,0,0,1,9,18.342a6.8,6.8,0,0,1-2.634.508A6.294,6.294,0,0,1,3.074,18ZM4.365,7.176a4.5,4.5,0,0,0-1.552,1.1A5.011,5.011,0,0,0,1.8,9.976a6.466,6.466,0,0,0-.366,2.2,5.4,5.4,0,0,0,1.378,3.814,4.45,4.45,0,0,0,1.551,1.056,5.272,5.272,0,0,0,2.006.376,5.416,5.416,0,0,0,2.051-.385,4.652,4.652,0,0,0,1.6-1.077,4.882,4.882,0,0,0,1.052-1.673,6.131,6.131,0,0,0,.381-2.186A4.983,4.983,0,0,0,6.366,6.782,5.049,5.049,0,0,0,4.365,7.176Zm109.8,11.372a.75.75,0,0,1-.721-.484l-4.619-11.6a.622.622,0,0,1,.028-.593.56.56,0,0,1,.494-.218h.252a.663.663,0,0,1,.646.485l4.072,10.428,4.072-10.428a.788.788,0,0,1,.225-.342.635.635,0,0,1,.421-.143h.252a.561.561,0,0,1,.494.218.623.623,0,0,1,.028.593l0,.008-4.616,11.589a.75.75,0,0,1-.721.484Zm-8.5,0a.543.543,0,0,1-.589-.612V10.469a3.917,3.917,0,0,0-.9-2.708,3.316,3.316,0,0,0-2.523-.979,4.173,4.173,0,0,0-2.816,1A3.509,3.509,0,0,0,97.7,10.469v7.467a.543.543,0,0,1-.59.612h-.277a.543.543,0,0,1-.59-.612V.613A.543.543,0,0,1,96.832,0h.277a.543.543,0,0,1,.59.613V7.076a4.78,4.78,0,0,1,1.174-.983,5.5,5.5,0,0,1,2.853-.738A4.643,4.643,0,0,1,105.215,6.7a4.5,4.5,0,0,1,.977,1.669,7.14,7.14,0,0,1,.337,2.273v7.292a.543.543,0,0,1-.589.612Zm-33.325,0a.75.75,0,0,1-.722-.487l0-.006-3.666-10.4-3.691,10.4a.75.75,0,0,1-.722.487H63.1a.75.75,0,0,1-.722-.487l0,0L58.242,6.467a.623.623,0,0,1,.028-.592.561.561,0,0,1,.494-.218h.3a.639.639,0,0,1,.622.487l0,.007,3.617,10.393L67,6.144a.75.75,0,0,1,.722-.487h.454a.75.75,0,0,1,.722.487l0,.005,3.663,10.391,3.618-10.4a.8.8,0,0,1,.226-.345.636.636,0,0,1,.421-.143H77.1a.56.56,0,0,1,.494.218.622.622,0,0,1,.028.592L73.488,18.062a.75.75,0,0,1-.722.487Zm-17.256,0a.543.543,0,0,1-.589-.612V10.469a3.916,3.916,0,0,0-.9-2.708,3.316,3.316,0,0,0-2.523-.979,4.172,4.172,0,0,0-2.816,1,3.509,3.509,0,0,0-1.136,2.689v7.467a.543.543,0,0,1-.589.612h-.278a.543.543,0,0,1-.589-.612V6.27a.543.543,0,0,1,.589-.613h.177c.546,0,.613.358.614.631l.038.833a4.781,4.781,0,0,1,1.213-1.028,5.5,5.5,0,0,1,2.852-.738A4.642,4.642,0,0,1,54.633,6.7a4.493,4.493,0,0,1,.977,1.669,7.129,7.129,0,0,1,.338,2.273v7.292a.543.543,0,0,1-.589.612Zm-14.228,0a.543.543,0,0,1-.589-.612V6.27a.543.543,0,0,1,.589-.613h.278a.535.535,0,0,1,.451.191.667.667,0,0,1,.113.422V17.936a.668.668,0,0,1-.113.422.535.535,0,0,1-.451.191Zm-24.067,0a.543.543,0,0,1-.589-.612V6.27a.543.543,0,0,1,.589-.613h.176a.635.635,0,0,1,.489.175.6.6,0,0,1,.126.474l.006.319A3.434,3.434,0,0,1,18.225,6a3.387,3.387,0,0,1,2.066-.641,2.726,2.726,0,0,1,1.283.267.626.626,0,0,1,.316.622V6.4a.507.507,0,0,1-.526.544.97.97,0,0,1-.272-.044l-.014,0a2.2,2.2,0,0,0-.761-.109,2.322,2.322,0,0,0-2.164,1.2,4.432,4.432,0,0,0-.5,2.087v7.87a.543.543,0,0,1-.589.612ZM40.318,2.191a.987.987,0,0,1-.307-.7A1.03,1.03,0,0,1,41,.478a.993.993,0,0,1,.968,1.015,1,1,0,0,1-.278.69.947.947,0,0,1-.69.3A1,1,0,0,1,40.318,2.191Z" transform="translate(45.432 10.689)" fill="#501b4a"/>
</svg>
