<svg id="Component_447_1" data-name="Component 447 – 1" xmlns="http://www.w3.org/2000/svg" width="89.56" height="100" viewBox="0 0 89.56 100">
  <g id="Group_4889" data-name="Group 4889" transform="translate(0)">
    <path id="Union_3" data-name="Union 3" d="M1.479,75C.495,73.3,0,61.7,0,50.072,0,38.4.491,26.714,1.479,25,3.451,21.587,40.84,0,44.782,0s41.329,21.588,43.3,25c.985,1.707,1.478,13.354,1.478,25S89.068,73.3,88.082,75c-1.97,3.413-39.357,25-43.3,25S3.45,78.418,1.479,75Z" transform="translate(0)" fill="#57144c"/>
  </g>
  <g id="Group_4839" data-name="Group 4839" transform="translate(21.435 18.549)">
    <path id="Subtraction_2" data-name="Subtraction 2" d="M23.776,53.093h0c-1.085,0-6.752-2.992-11.887-5.956S1.328,40.759.785,39.819,0,32.476,0,26.545.242,14.21.784,13.271s5.967-4.35,11.1-7.315S22.691,0,23.776,0s6.752,2.992,11.888,5.957,10.56,6.377,11.1,7.316.785,7.342.785,13.272-.243,12.334-.785,13.273-5.967,4.352-11.1,7.318S24.86,53.093,23.776,53.093ZM23.742,9.9c-.678,0-4.22,1.87-7.43,3.723s-6.6,3.985-6.939,4.572-.491,4.59-.491,8.3.152,7.709.491,8.3,3.73,2.72,6.939,4.573,6.752,3.723,7.43,3.723,4.22-1.87,7.43-3.724,6.6-3.986,6.939-4.573.491-4.589.491-8.3-.152-7.708-.491-8.3-3.729-2.719-6.939-4.572S24.42,9.9,23.742,9.9Z" transform="translate(0.181 14.286)" fill="#fff"/>
    <path id="Path_8443" data-name="Path 8443" d="M8.836,45.947c-.6-23.693.842-44.618.842-44.618.051-1.4-.885-1.555-1.64-1.1,0,0-5.656,3.647-6.565,4.193S.4,5.143.247,6.148C.116,11.234-.243,29.8.259,46.877.352,50.016,8.908,48.8,8.836,45.947Z" transform="matrix(1, 0.017, -0.017, 1, 0.85, 0)" fill="#fff"/>
  </g>
</svg>
